<svg width="161" height="119" viewBox="0 0 161 119" fill="none" xmlns="http://www.w3.org/2000/svg">
<g filter="url(#filter0_d)">
<path d="M76.7354 109H6.8623V99.2588L43.7764 58.2432C49.2451 52.042 53.0049 47.0127 55.0557 43.1553C57.1553 39.249 58.2051 35.2207 58.2051 31.0703C58.2051 25.5039 56.5205 20.9385 53.1514 17.374C49.7822 13.8096 45.29 12.0273 39.6748 12.0273C32.9365 12.0273 27.6875 13.9561 23.9277 17.8135C20.2168 21.6221 18.3613 26.9443 18.3613 33.7803H4.81152C4.81152 23.9658 7.96094 16.0313 14.2598 9.97656C20.6074 3.92187 29.0791 0.894531 39.6748 0.894531C49.5869 0.894531 57.4238 3.50684 63.1855 8.73145C68.9473 13.9072 71.8281 20.8164 71.8281 29.459C71.8281 39.957 65.1387 52.457 51.7598 66.959L23.1953 97.9404H76.7354V109ZM110.793 49.0879H120.974C127.37 48.9902 132.399 47.3057 136.062 44.0342C139.724 40.7627 141.555 36.3438 141.555 30.7773C141.555 18.2773 135.329 12.0273 122.878 12.0273C117.019 12.0273 112.331 13.7119 108.815 17.0811C105.349 20.4014 103.615 24.8203 103.615 30.3379H90.0654C90.0654 21.8906 93.1416 14.8838 99.2939 9.31738C105.495 3.70215 113.356 0.894531 122.878 0.894531C132.937 0.894531 140.822 3.55566 146.535 8.87793C152.248 14.2002 155.104 21.5977 155.104 31.0703C155.104 35.709 153.591 40.2012 150.563 44.5469C147.585 48.8926 143.508 52.1396 138.332 54.2881C144.191 56.1436 148.708 59.2197 151.882 63.5166C155.104 67.8135 156.716 73.0625 156.716 79.2637C156.716 88.834 153.591 96.4268 147.341 102.042C141.091 107.657 132.961 110.465 122.951 110.465C112.941 110.465 104.787 107.755 98.4883 102.335C92.2383 96.915 89.1133 89.7617 89.1133 80.875H102.736C102.736 86.4902 104.567 90.9824 108.229 94.3516C111.892 97.7207 116.799 99.4053 122.951 99.4053C129.494 99.4053 134.499 97.6963 137.966 94.2783C141.433 90.8604 143.166 85.9531 143.166 79.5566C143.166 73.3555 141.262 68.5947 137.453 65.2744C133.645 61.9541 128.151 60.2451 120.974 60.1475H110.793V49.0879Z" fill="black"/>
</g>
<defs>
<filter id="filter0_d" x="0.811523" y="0.894531" width="159.904" height="117.57" filterUnits="userSpaceOnUse" color-interpolation-filters="sRGB">
<feFlood flood-opacity="0" result="BackgroundImageFix"/>
<feColorMatrix in="SourceAlpha" type="matrix" values="0 0 0 0 0 0 0 0 0 0 0 0 0 0 0 0 0 0 127 0"/>
<feOffset dy="4"/>
<feGaussianBlur stdDeviation="2"/>
<feColorMatrix type="matrix" values="0 0 0 0 0 0 0 0 0 0 0 0 0 0 0 0 0 0 0.25 0"/>
<feBlend mode="normal" in2="BackgroundImageFix" result="effect1_dropShadow"/>
<feBlend mode="normal" in="SourceGraphic" in2="effect1_dropShadow" result="shape"/>
</filter>
</defs>
</svg>
